HIERARCHY
ROOT Hips
{
	OFFSET 0.00000 0.00000 0.00000
	CHANNELS 6 Xposition Yposition Zposition Zrotation Yrotation Xrotation 
	JOINT LHipJoint
	{
		OFFSET 0 0 0
		CHANNELS 3 Zrotation Yrotation Xrotation
		JOINT LeftHip
		{
			OFFSET 1.53139 -1.83434 0.76626
			CHANNELS 3 Zrotation Yrotation Xrotation
			JOINT LeftKnee
			{
				OFFSET 2.56112 -7.03663 0.00000
				CHANNELS 3 Zrotation Yrotation Xrotation
				JOINT LeftAnkle
				{
					OFFSET 2.59983 -7.14299 0.00000
					CHANNELS 3 Zrotation Yrotation Xrotation
					JOINT LeftToe
					{
						OFFSET 0.13742 -0.37757 2.00054
						CHANNELS 3 Zrotation Yrotation Xrotation
						End Site
						{
							OFFSET 0.00000 -0.00000 1.02897
						}
					}
				}
			}
		}
	}
	JOINT RHipJoint
	{
		OFFSET 0 0 0
		CHANNELS 3 Zrotation Yrotation Xrotation
		JOINT RightHip
		{
			OFFSET -1.40122 -1.83435 0.76627
			CHANNELS 3 Zrotation Yrotation Xrotation
			JOINT RightKnee
			{
				OFFSET -2.54052 -6.98003 0.00000
				CHANNELS 3 Zrotation Yrotation Xrotation
				JOINT RightAnkle
				{
					OFFSET -2.63179 -7.23079 0.00000
					CHANNELS 3 Zrotation Yrotation Xrotation
					JOINT RightToe
					{
						OFFSET -0.24131 -0.66299 2.03908
						CHANNELS 3 Zrotation Yrotation Xrotation
						End Site
						{
							OFFSET -0.00000 -0.00000 1.07391
						}
					}
				}
			}
		}
	}
	JOINT lowerback
	{
		OFFSET 0 0 0
		CHANNELS 3 Zrotation Yrotation Xrotation
		JOINT Chest
		{
			OFFSET 0.01174 2.10302 -0.29778
			CHANNELS 3 Zrotation Yrotation Xrotation
			JOINT Chest2
			{
				OFFSET 0.00772 2.13227 -0.01247
				CHANNELS 3 Zrotation Yrotation Xrotation
				JOINT lowerneck
				{
					OFFSET 0 0 0
					CHANNELS 3 Zrotation Yrotation Xrotation
					JOINT Neck
					{
						OFFSET -0.09219 1.60848 0.31481
						CHANNELS 3 Zrotation Yrotation Xrotation
						JOINT Head
						{
							OFFSET 0.13974 1.65456 -0.31134
							CHANNELS 3 Zrotation Yrotation Xrotation
							End Site
							{
								OFFSET 0.04742 1.69515 -0.14578
							}
						}
					}
				}
				JOINT LeftCollar
				{
					OFFSET 0 0 0
					CHANNELS 3 Zrotation Yrotation Xrotation
					JOINT LeftShoulder
					{
						OFFSET 3.24909 1.02882 -0.23993
CHANNELS 3 Zrotation Xrotation Yrotation
						JOINT LeftElbow
						{
OFFSET 0 -5.329550 -0.000000
CHANNELS 3 Zrotation Xrotation Yrotation
							JOINT LeftWrist
							{
OFFSET 0 -3.692320 -0.000000
CHANNELS 3 Zrotation Xrotation Yrotation
								JOINT lhand
								{
									OFFSET 0 0 0
CHANNELS 3 Zrotation Xrotation Yrotation
									JOINT LFingers
									{
OFFSET 0 -0.536600 -0.000000
CHANNELS 3 Zrotation Xrotation Yrotation
										End Site
										{
OFFSET 0 -0.432620 -0.000000
										}
									}
								}
								JOINT LThumb
								{
OFFSET 0 0.000000 0.000000
CHANNELS 3 Zrotation Xrotation Yrotation
									End Site
									{
OFFSET 0 -0.439220 0.439220
									}
								}
							}
						}
					}
				}
				JOINT RightCollar
				{
					OFFSET 0 0 0
					CHANNELS 3 Zrotation Yrotation Xrotation
					JOINT RightShoulder
					{
						OFFSET -3.21387 0.93002 -0.34594
CHANNELS 3 Zrotation Xrotation Yrotation
						JOINT RightElbow
						{
OFFSET 0 -5.234310 0.000000
CHANNELS 3 Zrotation Xrotation Yrotation
							JOINT RightWrist
							{
OFFSET 0 -3.553010 -0.000000
CHANNELS 3 Zrotation Xrotation Yrotation
								JOINT rhand
								{
									OFFSET 0 0 0
CHANNELS 3 Zrotation Xrotation Yrotation
									JOINT RFingers
									{
OFFSET 0 -0.772520 -0.000000
CHANNELS 3 Zrotation Xrotation Yrotation
										End Site
										{
OFFSET 0 -0.622830 -0.000000
										}
									}
								}
								JOINT RThumb
								{
OFFSET 0 0.000000 0.000000
CHANNELS 3 Zrotation Xrotation Yrotation
									End Site
									{
OFFSET 0 -0.632340 0.632340
									}
								}
							}
						}
					}
				}
			}
		}
	}
}
MOTION
Frames: 11
Frame Time: 0.008333333333333333
16.031300 17.855700 -10.196000 8.037000 -76.735100 -5.859400 0.000000 0.000000 0.000000 -21.610200 -9.091200 -6.723100 1.770700 8.371200 23.847200 0.522900 -5.331000 -12.885000 0.574600 -4.854400 -13.493700 0.000000 0.000000 0.000000 21.423900 1.051700 -10.983400 -3.005300 -10.703600 31.286600 -1.214200 -0.136600 -20.890300 -0.020300 -0.919100 2.526300 1.155300 1.004100 8.345100 1.580200 1.536600 -1.017000 0.796400 0.741500 -5.760900 -7.222500 -0.121600 -26.933900 2.763400 1.944600 25.805500 2.636200 0.470300 13.031900 -0.000000 -0.000000 0.000000 -1.716400 6.097500 -7.229800 16.408700 -26.071600 3.823800 21.799900 11.382700 -20.339000 0.000000 0.000000 0.000000 -7.125000 0.000000 0.000000 -6.808100 51.618400 1.114000 -0.000000 -0.000000 0.000000 -1.675900 6.105200 2.991700 -15.335800 -24.611800 -3.364500 -12.673400 5.966000 -9.062600 0.000000 0.000000 0.000000 7.125000 0.000000 -0.000000 10.214800 20.758200 6.026300
16.014927 17.862948 -10.220969 6.920669 -76.376761 -4.626247 0.000000 0.000000 0.000000 -21.191464 -9.214369 -6.975714 1.786333 8.406204 23.954697 0.527395 -5.787477 -12.965908 0.565896 -4.817849 -13.389693 0.000000 0.000000 0.000000 21.843290 1.318842 -10.919284 -2.970948 -10.647853 31.101264 -1.206292 -0.620489 -20.995918 -0.034759 -1.202744 3.306846 1.296866 0.830732 8.211774 1.612985 1.317124 -0.978652 0.781946 0.629693 -5.640998 -8.777783 -0.221520 -25.726144 4.632079 1.763829 24.698242 3.539533 0.542365 12.317817 0.000000 0.000000 0.000000 -1.260197 5.642258 -10.040314 16.725001 -26.493751 3.963862 20.778989 9.301453 -21.064246 0.000000 0.000000 0.000000 -7.125000 0.000000 0.000000 -8.062126 52.191948 1.434721 0.000000 0.000000 0.000000 -1.483997 7.341337 5.912384 -16.079957 -25.628855 -3.680501 -12.610791 3.493329 -7.837918 0.000000 0.000000 0.000000 7.125000 0.000000 0.000000 10.317997 21.994066 5.795199
15.986796 17.864044 -10.233981 6.560659 -76.616319 -4.300764 0.000000 0.000000 0.000000 -21.126173 -9.748931 -6.537474 1.780422 8.392875 23.913923 0.547047 -4.809085 -13.164131 0.626639 -5.063568 -14.090412 0.000000 0.000000 0.000000 21.975558 1.465956 -10.648320 -2.942183 -10.600939 30.945510 -1.230119 -0.213508 -21.053462 -0.063797 -1.622979 4.464864 1.242986 0.809968 8.327390 1.689128 1.294781 -1.139695 0.892515 0.620506 -5.879033 -9.076477 -0.117512 -24.852574 4.853961 1.873395 24.244245 3.661363 0.604076 11.956030 0.000000 0.000000 0.000000 -1.564811 5.775455 -10.900177 17.608988 -27.653520 4.366203 19.234596 9.776442 -22.894463 0.000000 0.000000 0.000000 -7.125000 0.000000 0.000000 -10.300971 53.783003 2.244493 0.000000 0.000000 0.000000 -1.432392 7.229976 5.867080 -16.089514 -25.641825 -3.684669 -12.388217 4.328132 -8.299530 0.000000 0.000000 0.000000 7.125000 0.000000 0.000000 10.454631 21.537675 5.984858
15.969844 17.858044 -10.235211 5.953751 -77.537408 -3.849587 0.000000 0.000000 0.000000 -20.882283 -9.506439 -6.426137 1.829292 8.501093 24.246735 0.563918 -4.574436 -13.369681 0.422058 -4.169150 -11.553182 0.000000 0.000000 0.000000 22.139638 1.782889 -10.223166 -2.910320 -10.548399 30.771633 -1.235972 0.612942 -20.831248 -0.076222 -1.771399 4.874457 1.713262 0.942313 8.507183 1.484093 1.512401 -1.090925 0.382716 0.708384 -5.913669 -8.659787 0.052542 -25.075952 4.552829 2.056018 24.629800 3.523887 0.670141 12.143131 0.000000 0.000000 0.000000 -1.554427 5.511532 -11.537510 17.883378 -28.007529 4.494334 21.295651 8.778842 -19.745644 0.000000 0.000000 0.000000 -7.125000 0.000000 0.000000 -7.128452 50.912602 1.045563 0.000000 0.000000 0.000000 -0.976813 6.036306 5.764527 -16.118265 -25.680759 -3.697115 -12.347850 5.290996 -8.826636 0.000000 0.000000 0.000000 7.125000 0.000000 0.000000 10.457849 21.009444 6.114191
15.967834 17.862569 -10.203057 4.507781 -78.782286 -2.504218 0.000000 0.000000 0.000000 -20.568937 -9.579077 -7.002658 2.027727 8.923628 25.556616 0.575421 -3.736468 -13.544440 0.405163 -4.085074 -11.316243 0.000000 0.000000 0.000000 22.390102 1.991885 -9.932901 -2.826936 -10.409437 30.313012 -1.183566 1.287495 -20.182422 -0.032560 -1.162608 3.196336 2.634374 1.159807 8.900397 1.484243 1.910937 -1.070734 -0.195710 0.869964 -6.085270 -9.168133 0.043739 -25.344050 4.551120 2.267324 25.249658 3.668448 0.689459 12.418470 0.000000 0.000000 0.000000 -1.866754 5.295075 -11.965332 17.990032 -28.144397 4.544542 22.574068 7.545867 -17.624268 0.000000 0.000000 0.000000 -7.125000 0.000000 0.000000 -5.303593 48.892285 0.511449 0.000000 0.000000 0.000000 -1.434922 5.090400 7.737369 -16.782213 -26.569736 -3.989493 -11.840104 4.420859 -8.933688 0.000000 0.000000 0.000000 7.125000 0.000000 0.000000 10.815208 20.922602 6.352070
15.983500 17.877895 -10.105857 7.055197 -80.504545 -5.149826 0.000000 0.000000 0.000000 -20.963919 -10.054922 -7.183900 2.196827 9.264484 26.626345 0.541369 -3.549451 -13.142428 0.508857 -4.572483 -12.693035 0.000000 0.000000 0.000000 21.427202 1.280335 -10.328819 -2.842675 -10.435943 30.400165 -1.140524 3.226215 -19.371416 -0.000283 -0.105439 0.289672 3.350860 1.527552 9.513739 1.197298 2.488317 -1.014276 -0.995071 1.119666 -6.319620 -8.166692 0.159468 -25.947522 3.098698 2.524570 26.404868 3.027071 0.645006 13.028491 0.000000 0.000000 0.000000 -2.375875 5.183999 -10.653387 18.130640 -28.324142 4.611057 20.584960 9.903713 -20.126833 0.000000 0.000000 0.000000 -7.125000 0.000000 0.000000 -7.946278 51.189079 1.217970 0.000000 0.000000 0.000000 -1.889984 3.819531 8.981315 -17.435140 -27.427797 -4.285889 -11.978683 4.017820 -8.672701 0.000000 0.000000 0.000000 7.125000 0.000000 0.000000 10.729321 21.178780 6.236573
15.981087 17.896817 -9.969763 10.717905 -80.931820 -8.820911 0.000000 0.000000 0.000000 -19.772908 -9.254217 -8.273667 2.396226 9.646805 27.840337 0.345204 -13.233548 -13.139281 0.874845 -5.963372 -16.678149 0.000000 0.000000 0.000000 20.328058 1.779391 -9.869542 -2.808259 -10.378021 30.209699 -1.137710 3.222628 -19.347284 -0.000428 0.131419 -0.361196 3.544625 1.561852 9.655122 1.166380 2.555260 -0.883067 -1.148023 1.147104 -6.248916 -8.307861 0.146705 -25.758641 2.706368 2.659361 27.183181 2.936934 0.592412 13.312511 0.000000 0.000000 0.000000 -2.903343 5.223589 -9.920858 17.991996 -28.146908 4.545487 20.895381 9.662416 -18.601868 0.000000 0.000000 0.000000 -7.125000 0.000000 0.000000 -7.184260 49.656724 0.828585 0.000000 0.000000 0.000000 -3.235267 3.322504 10.680202 -18.817620 -29.191397 -4.941548 -11.393773 2.310496 -8.851262 0.000000 0.000000 0.000000 7.125000 0.000000 0.000000 11.137790 21.022678 6.523088
15.966308 17.948897 -9.767021 15.988789 -81.419165 -14.680094 0.000000 0.000000 0.000000 -17.787577 -10.471337 -7.496945 2.583560 9.988272 28.938797 0.402472 -12.142153 -13.230528 0.900392 -6.032251 -16.882938 0.000000 0.000000 0.000000 18.921946 1.904129 -8.023387 -2.515558 -9.866122 28.544250 -1.044689 3.127139 -18.525341 -0.006110 0.497674 -1.367534 3.484842 1.588463 10.288926 0.955627 2.589192 -0.607057 -1.357187 1.162553 -6.306831 -8.438015 0.293596 -25.271295 2.703409 2.858829 27.884055 3.003013 0.627573 13.491280 0.000000 0.000000 0.000000 -2.914768 5.241111 -8.243388 17.781746 -27.876841 4.446708 20.684677 11.044165 -18.605515 0.000000 0.000000 0.000000 -7.125000 0.000000 0.000000 -7.389636 49.627186 0.847209 0.000000 0.000000 0.000000 -4.058831 2.563500 10.335015 -19.377640 -29.885211 -5.217720 -12.078838 1.737261 -8.756415 0.000000 0.000000 0.000000 7.125000 0.000000 0.000000 10.653596 21.090889 6.212683
15.912778 18.038222 -9.474996 23.598629 -82.493111 -22.775484 0.000000 0.000000 0.000000 -14.854345 -12.704815 -5.472655 2.479382 9.800191 28.332269 0.320342 -2.696433 -10.100557 0.597529 -4.939598 -13.738174 0.000000 0.000000 0.000000 17.306509 2.907690 -5.397129 -2.094656 -9.060470 25.984549 -0.932544 2.830066 -17.516561 -0.008612 0.585555 -1.609030 3.328610 1.879834 10.504839 0.793898 2.946326 -0.330774 -1.495412 1.345874 -6.118425 -8.255394 0.709436 -24.912369 2.325868 3.453573 29.168807 2.956206 0.778671 13.936204 0.000000 0.000000 0.000000 -2.508512 5.645087 -7.358927 17.928547 -28.065555 4.515602 21.700035 11.173627 -18.675567 0.000000 0.000000 0.000000 -7.125000 0.000000 0.000000 -6.422491 49.861948 0.772455 0.000000 0.000000 0.000000 -5.252817 1.936393 9.708473 -18.814064 -29.186956 -4.939894 -11.965477 1.983197 -8.383053 0.000000 0.000000 0.000000 7.125000 0.000000 0.000000 10.753718 21.469879 6.179046
15.850162 18.073043 -9.088422 34.874203 -83.592328 -34.578046 0.000000 0.000000 0.000000 -11.490255 -11.800322 -4.427922 2.082910 9.036346 25.909392 0.075281 -4.903962 -5.565874 0.448303 -4.291040 -11.897588 0.000000 0.000000 0.000000 15.235024 3.782232 -3.385504 -1.860262 -8.568633 24.455005 -0.888585 3.179931 -17.025571 -0.014891 0.786814 -2.162411 3.202693 2.154167 10.800595 0.563070 3.279759 0.009627 -1.720919 1.516205 -5.902171 -7.978383 1.292174 -24.528363 1.738653 4.331683 30.150367 2.849239 1.040136 14.250798 0.000000 0.000000 0.000000 -2.177681 5.932062 -5.392211 18.133812 -28.328112 4.612522 22.245992 10.920168 -18.615238 0.000000 0.000000 0.000000 -7.125000 0.000000 0.000000 -5.873483 49.886567 0.709740 0.000000 0.000000 0.000000 -6.274254 1.303842 8.810654 -17.749881 -27.835646 -4.431870 -11.603022 3.019172 -8.914462 0.000000 0.000000 0.000000 7.125000 0.000000 0.000000 10.985139 20.951278 6.448599
15.775448 18.062183 -8.561930 46.458807 -84.777652 -46.536987 0.000000 0.000000 0.000000 -8.747714 -13.027954 -2.279521 1.598938 7.975005 22.638318 -0.029374 -4.635597 -2.034369 0.188487 -2.788727 -7.691547 0.000000 0.000000 0.000000 13.286925 4.286932 -1.936544 -1.678867 -8.162455 23.208462 -0.843551 3.284383 -16.557175 -0.152105 2.513105 -6.925923 3.925981 2.272582 10.916410 0.371443 3.501370 0.414052 -2.352067 1.614470 -5.474052 -7.106600 2.078163 -24.449660 0.399376 5.571718 30.777137 2.398651 1.424896 14.524735 0.000000 0.000000 0.000000 -1.427770 5.943229 -5.238293 17.749248 -27.834905 4.431546 22.487016 9.839092 -18.583338 0.000000 0.000000 0.000000 -7.125000 0.000000 0.000000 -5.629487 49.891780 0.681000 0.000000 0.000000 0.000000 -7.279886 0.930732 9.300567 -17.018766 -26.882428 -4.095864 -13.197863 1.616141 -7.969541 0.000000 0.000000 0.000000 7.125000 0.000000 0.000000 9.887844 21.839552 5.581538
